HIERARCHY
ROOT hip
{
	OFFSET 0.000000 0.000000 0.000000
	CHANNELS 6 Xposition Yposition Zposition Zrotation Yrotation Xrotation 
	JOINT lhipjoint
	{
		OFFSET 0.000000 0.000000 0.000000
		CHANNELS 3 Zrotation Yrotation Xrotation
		JOINT lfemur
		{
			OFFSET 1.363060 -1.794630 0.839290
			CHANNELS 3 Zrotation Yrotation Xrotation
			JOINT ltibia
			{
				OFFSET 2.448110 -6.726130 0.000000
				CHANNELS 3 Zrotation Yrotation Xrotation
				JOINT lfoot
				{
					OFFSET 2.562200 -7.039590 0.000000
					CHANNELS 3 Zrotation Yrotation Xrotation
					JOINT ltoes
					{
						OFFSET 0.157640 -0.433110 2.322550
						CHANNELS 3 Zrotation Yrotation Xrotation
						End Site
						{
							OFFSET 0.000000 0.000000 0.000000
						}
					}
				}
			}
		}
	}
	JOINT rhipjoint
	{
		OFFSET 0.000000 0.000000 0.000000
		CHANNELS 3 Zrotation Yrotation Xrotation
		JOINT rfemur
		{
			OFFSET -1.305520 -1.794630 0.839290
			CHANNELS 3 Zrotation Yrotation Xrotation
			JOINT rtibia
			{
				OFFSET -2.542530 -6.985550 0.000000
				CHANNELS 3 Zrotation Yrotation Xrotation
				JOINT rfoot
				{
					OFFSET -2.568260 -7.056230 0.000000
					CHANNELS 3 Zrotation Yrotation Xrotation
					JOINT rtoes
					{
						OFFSET -0.164730 -0.452590 2.363150
						CHANNELS 3 Zrotation Yrotation Xrotation
						End Site
						{
							OFFSET 0.000000 0.000000 0.000000
						}
					}
				}
			}
		}
	}
	JOINT lowerback
	{
		OFFSET 0.000000 0.000000 0.000000
		CHANNELS 3 Zrotation Yrotation Xrotation
		JOINT upperback
		{
			OFFSET 0.028270 2.035590 -0.193380
			CHANNELS 3 Zrotation Yrotation Xrotation
			JOINT thorax
			{
				OFFSET 0.056720 2.048850 -0.042750
				CHANNELS 3 Zrotation Yrotation Xrotation
				JOINT lowerneck
				{
					OFFSET 0.000000 0.000000 0.000000
					CHANNELS 3 Zrotation Yrotation Xrotation
					JOINT upperneck
					{
						OFFSET -0.054170 1.746240 0.172020
						CHANNELS 3 Zrotation Yrotation Xrotation
						JOINT head
						{
							OFFSET 0.104070 1.761360 -0.123970
							CHANNELS 3 Zrotation Yrotation Xrotation
							End Site
							{
								OFFSET 0.000000 0.000000 0.000000
							}
						}
					}
				}
				JOINT lclavicle
				{
					OFFSET 0.000000 0.000000 0.000000
					CHANNELS 3 Zrotation Yrotation Xrotation
					JOINT lhumerus
					{
						OFFSET 3.362410 1.200890 -0.311210
						CHANNELS 3 Zrotation Yrotation Xrotation
						JOINT lradius
						{
							OFFSET 4.983000 -0.000000 -0.000000
							CHANNELS 3 Zrotation Yrotation Xrotation
							JOINT lwrist
							{
								OFFSET 3.483560 -0.000000 -0.000000
								CHANNELS 3 Zrotation Yrotation Xrotation
								JOINT lhand
								{
									OFFSET 0.000000 0.000000 0.000000
									CHANNELS 3 Zrotation Yrotation Xrotation
									JOINT lfingers
									{
										OFFSET 0.715260 -0.000000 -0.000000
										CHANNELS 3 Zrotation Yrotation Xrotation
										End Site
										{
											OFFSET 0.000000 0.000000 0.000000
										}
									}
								}
								JOINT lthumb
								{
									OFFSET 0.000000 0.000000 0.000000
									CHANNELS 3 Zrotation Yrotation Xrotation
									End Site
									{
										OFFSET 0.000000 0.000000 0.000000
									}
								}
							}
						}
					}
				}
				JOINT rclavicle
				{
					OFFSET 0.000000 0.000000 0.000000
					CHANNELS 3 Zrotation Yrotation Xrotation
					JOINT rhumerus
					{
						OFFSET -3.136600 1.374050 -0.404650
						CHANNELS 3 Zrotation Yrotation Xrotation
						JOINT rradius
						{
							OFFSET -5.241900 -0.000000 -0.000000
							CHANNELS 3 Zrotation Yrotation Xrotation
							JOINT rwrist
							{
								OFFSET -3.444170 -0.000000 -0.000000
								CHANNELS 3 Zrotation Yrotation Xrotation
								JOINT rhand
								{
									OFFSET 0.000000 0.000000 0.000000
									CHANNELS 3 Zrotation Yrotation Xrotation
									JOINT rfingers
									{
										OFFSET -0.622530 -0.000000 -0.000000
										CHANNELS 3 Zrotation Yrotation Xrotation
										End Site
										{
											OFFSET 0.000000 0.000000 0.000000
										}
									}
								}
								JOINT rthumb
								{
									OFFSET 0.000000 0.000000 0.000000
									CHANNELS 3 Zrotation Yrotation Xrotation
									End Site
									{
										OFFSET 0.000000 0.000000 0.000000
									}
								}
							}
						}
					}
				}
			}
		}
	}
}
MOTION
Frames: 12
Frame Time: 0.008333
0.802732 18.084423 4.400778 -173.751177 -13.979175 167.227432 -1.578984 3.021608 2.631343 -4.728911 1.243173 10.540792 2.969349 10.413843 31.693730 0.879796 -3.092317 9.648788 4.038600 -12.211700 -36.484900 0.440975 -4.182227 1.602417 25.497237 5.071913 0.842602 -1.473293 -5.936839 20.816684 2.149883 -10.320639 3.743334 -0.014700 0.781500 -2.147800 2.730880 -1.496081 14.709975 1.430564 -2.193718 -3.562316 5.530087 -0.834034 -0.326401 -9.570802 -7.709636 -3.268553 -2.591777 -8.351216 3.572722 4.127300 -3.780400 1.597900 -1.882686 2.043093 -0.800816 -25.134310 4.359147 -13.586504 24.157070 -40.131429 -10.857083 -0.000951 -0.864069 82.892952 8.572453 10.222051 1.394900 -7.125000 0.000000 0.000000 -16.814700 39.855500 2.204400 2.606145 1.042033 2.893606 32.357632 -10.695829 -43.011858 -49.503964 52.150614 -21.763505 0.677877 -1.337536 139.715666 -2.968998 -2.544060 0.231900 7.125000 0.000000 0.000000 18.867400 -33.505700 5.578000 
0.831328 18.089855 4.345226 -173.792744 -14.059924 167.045191 -1.579386 3.013520 2.612397 -4.647179 1.063273 9.728666 3.311041 10.940311 33.469621 0.861317 -2.705617 10.351955 3.916600 -12.048600 -35.904200 0.447149 -4.187169 1.616548 25.561636 4.776025 1.284447 -1.440017 -5.843851 20.572309 2.142276 -10.262571 3.619084 -0.012200 0.712100 -1.956900 2.572186 -1.493976 14.696594 1.407344 -2.207041 -3.572495 5.680270 -0.838009 -0.430609 -9.761648 -7.704465 -2.959285 -2.659626 -8.342560 3.670337 4.167600 -3.793300 1.600900 -1.997701 2.016399 -0.810191 -22.379662 3.478852 -13.710300 24.081240 -39.759031 -10.788543 0.052168 -0.949613 81.068751 7.647609 10.686046 1.262200 -7.125000 0.000000 0.000000 -17.792700 40.205400 2.182700 2.728980 1.054376 2.821657 29.959181 -10.102170 -44.353567 -49.802938 52.360815 -22.102052 0.663306 -1.317631 139.320653 -2.395583 -2.736448 0.200200 7.125000 0.000000 0.000000 19.346300 -33.634600 5.670100 
0.858078 18.094365 4.290392 -173.824223 -14.141990 166.857745 -1.579551 3.006401 2.593299 -4.563708 0.889301 8.930853 3.665081 11.446600 35.213305 0.830241 -2.191615 11.074418 3.751400 -11.822000 -35.105100 0.453400 -4.192910 1.631659 25.622182 4.453817 1.734299 -1.403641 -5.742586 20.304248 2.132098 -10.195665 3.521199 -0.009600 0.632200 -1.737300 2.431631 -1.492642 14.680464 1.383523 -2.217968 -3.584845 5.830846 -0.839124 -0.544973 -9.978786 -7.696595 -2.624115 -2.713602 -8.332339 3.766155 4.223200 -3.805800 1.600700 -2.103163 1.985453 -0.808367 -19.625934 2.560272 -13.813953 24.014052 -39.384030 -10.707165 0.103448 -1.035176 79.479596 6.809705 11.214162 1.137800 -7.125000 0.000000 0.000000 -18.725300 40.621000 2.106200 2.845600 1.072963 2.744221 27.549445 -9.439402 -45.722240 -50.105617 52.582548 -22.447426 0.645537 -1.293107 139.087869 -1.857171 -2.971648 0.169000 7.125000 0.000000 0.000000 19.811000 -33.799900 5.736800 
0.884624 18.100207 4.236788 -173.883811 -14.225041 166.690607 -1.579929 2.999328 2.572286 -4.511562 0.724351 8.144277 4.024415 11.922873 36.896316 0.792193 -1.604972 11.797319 3.545000 -11.529000 -34.085600 0.461268 -4.198058 1.646936 25.659599 4.178294 2.181674 -1.366817 -5.640636 20.028942 2.130766 -10.167139 3.402624 -0.007900 0.575700 -1.581900 2.258512 -1.491496 14.654878 1.355831 -2.234205 -3.597332 5.971108 -0.842637 -0.650212 -10.147677 -7.679863 -2.304481 -2.780612 -8.314260 3.862120 4.258900 -3.815200 1.596800 -2.192971 1.949842 -0.793428 -16.958266 1.592844 -14.224297 24.017023 -39.067579 -10.664797 0.150972 -1.117879 78.476100 6.102295 11.645525 1.015900 -7.125000 0.000000 0.000000 -19.523700 40.947700 2.039200 2.957837 1.093590 2.658894 25.130992 -8.679678 -47.097479 -50.422408 52.820258 -22.808504 0.627860 -1.264673 138.990044 -1.313440 -3.178322 0.132300 7.125000 0.000000 0.000000 20.278400 -33.934700 5.816900 
0.910145 18.105229 4.183183 -173.929447 -14.293701 166.527972 -1.578765 2.993109 2.548896 -4.432307 0.614269 7.366033 4.383837 12.368328 38.506814 0.751128 -0.982296 12.496478 3.323100 -11.200600 -32.959300 0.468848 -4.202427 1.660437 25.721051 3.975950 2.671761 -1.328083 -5.531310 19.727787 2.147930 -10.220464 3.281178 -0.005800 0.492100 -1.352200 2.104555 -1.488655 14.596052 1.327748 -2.248813 -3.602591 6.096725 -0.845919 -0.713182 -10.320511 -7.674238 -1.989532 -2.832520 -8.312195 3.946515 4.303400 -3.829800 1.586500 -2.266248 1.918646 -0.763955 -14.400369 0.571741 -14.931423 24.104516 -38.831929 -10.667411 0.194759 -1.196669 78.042884 5.526224 12.056583 0.909500 -7.125000 0.000000 0.000000 -20.205400 41.257900 1.954800 3.062381 1.115438 2.567065 22.687584 -7.795984 -48.532570 -50.700153 53.058103 -23.148145 0.609039 -1.232372 139.070410 -0.777002 -3.384820 0.092400 7.125000 0.000000 0.000000 20.744600 -34.065600 5.896200 
0.933411 18.110661 4.130912 -173.975046 -14.343055 166.365833 -1.577715 2.988021 2.524173 -4.344171 0.556577 6.624857 4.733958 12.776321 40.017324 0.712258 -0.375625 13.154724 3.076200 -10.817300 -31.666300 0.474492 -4.206126 1.671657 25.776183 3.773835 3.171300 -1.285997 -5.414364 19.403719 2.159219 -10.250744 3.184151 -0.003900 0.404800 -1.112300 1.967057 -1.481596 14.524595 1.303994 -2.258057 -3.599733 6.231643 -0.850254 -0.727790 -10.502211 -7.670104 -1.733078 -2.897520 -8.308799 4.028645 4.338600 -3.843300 1.584400 -2.319957 1.887269 -0.722654 -11.962961 -0.503332 -15.917987 24.204616 -38.621886 -10.669728 0.233827 -1.268098 78.160206 5.139611 12.420836 0.833600 -7.125000 0.000000 0.000000 -20.707500 41.532200 1.860600 3.164047 1.137766 2.464990 20.190188 -6.791320 -50.043024 -50.966195 53.308178 -23.485314 0.591208 -1.195217 139.196803 -0.261673 -3.510494 0.049800 7.125000 0.000000 0.000000 21.178000 -34.118400 6.005700 
0.955755 18.116913 4.079767 -174.002788 -14.395991 166.214683 -1.576760 2.982873 2.499451 -4.242415 0.495852 5.903970 5.070683 13.147924 41.417097 0.668279 0.268602 13.771976 2.777800 -10.326400 -30.040300 0.478832 -4.209278 1.681226 25.848882 3.569937 3.662167 -1.241735 -5.289683 19.056463 2.174991 -10.302890 3.123010 -0.002800 0.339700 -0.933400 1.841207 -1.480075 14.427387 1.285661 -2.273179 -3.594107 6.381732 -0.858617 -0.712018 -10.703642 -7.659865 -1.511396 -2.959014 -8.298171 4.125515 4.375900 -3.855500 1.595400 -2.357033 1.853811 -0.669639 -9.621161 -1.585856 -17.079125 24.323159 -38.446994 -10.678493 0.269924 -1.331547 78.705717 4.970183 12.673944 0.795200 -7.125000 0.000000 0.000000 -20.981900 41.714300 1.788400 3.260055 1.159206 2.351638 17.657753 -5.672454 -51.597614 -51.242443 53.578124 -23.833163 0.573343 -1.154357 139.411092 0.229672 -3.578911 0.007200 7.125000 0.000000 0.000000 21.580800 -34.116000 6.136300 
0.976459 18.122243 4.029443 -174.049578 -14.444228 166.057005 -1.574260 2.978881 2.474397 -4.149867 0.501871 5.226498 5.383859 13.475455 42.687244 0.636668 0.788743 14.302213 2.554600 -9.936500 -28.771200 0.482643 -4.212180 1.690816 25.908687 3.433981 4.203615 -1.197764 -5.164018 18.702061 2.206651 -10.421834 3.007581 -0.001700 0.267900 -0.736000 1.704571 -1.477075 14.342698 1.264964 -2.288167 -3.586159 6.517804 -0.866807 -0.698835 -10.909105 -7.648622 -1.265378 -2.991018 -8.289931 4.199804 4.428800 -3.864600 1.589900 -2.379664 1.819775 -0.603131 -7.349133 -2.702177 -18.409122 24.471295 -38.316546 -10.697242 0.304618 -1.385909 79.618164 4.961621 12.856201 0.788500 -7.125000 0.000000 0.000000 -21.085700 41.836500 1.731100 3.344236 1.187262 2.233948 15.119897 -4.439082 -53.186249 -51.513526 53.858126 -24.181666 0.556235 -1.110647 139.675210 0.700704 -3.566248 -0.033800 7.125000 0.000000 0.000000 21.948600 -34.037600 6.300200 
0.994908 18.128597 3.980246 -174.106467 -14.475499 165.931071 -1.572611 2.974665 2.450416 -4.073882 0.551960 4.562697 5.670519 13.760228 43.825652 0.610169 1.203519 14.695577 2.364400 -9.587000 -27.649400 0.486705 -4.215385 1.701249 25.940291 3.289022 4.700693 -1.152334 -5.037761 18.344247 2.224743 -10.485834 2.938122 -0.000700 0.167800 -0.461200 1.581201 -1.467895 14.230116 1.243849 -2.292810 -3.581236 6.630723 -0.867735 -0.675529 -11.086760 -7.634251 -1.069186 -3.053404 -8.279061 4.303111 4.454200 -3.878100 1.604700 -2.384182 1.778155 -0.525882 -5.141057 -3.840303 -19.851271 24.652731 -38.234561 -10.730586 0.339957 -1.430045 80.755627 5.108150 12.895237 0.809500 -7.125000 0.000000 0.000000 -20.997300 41.831900 1.725600 3.421402 1.215092 2.104427 12.593898 -3.108989 -54.812142 -51.816382 54.158715 -24.554770 0.538917 -1.066000 139.896244 1.167201 -3.517094 -0.072900 7.125000 0.000000 0.000000 22.301300 -33.924400 6.482100 
1.011717 18.134030 3.934021 -174.176229 -14.500730 165.810277 -1.572811 2.970287 2.427925 -4.015582 0.622813 3.938691 5.920412 13.999437 44.809317 0.596796 1.463260 14.974080 2.217300 -9.304800 -26.753600 0.488755 -4.217522 1.710195 25.959915 3.170831 5.169277 -1.112490 -4.923984 18.020982 2.248354 -10.575365 2.869140 -0.000300 0.110000 -0.302100 1.441093 -1.461815 14.127459 1.229914 -2.302852 -3.575194 6.776615 -0.874199 -0.637148 -11.297293 -7.613010 -0.938015 -3.117756 -8.256333 4.414373 4.477500 -3.887500 1.637800 -2.373555 1.732492 -0.438442 -3.054553 -4.979523 -21.413154 24.874869 -38.216051 -10.790183 0.376357 -1.464230 81.989891 5.423285 12.810704 0.861900 -7.125000 0.000000 0.000000 -20.712900 41.722900 1.758500 3.491265 1.242234 1.962167 10.042614 -1.644691 -56.463265 -52.154294 54.490853 -24.946979 0.521576 -1.022380 140.185191 1.623420 -3.454798 -0.109300 7.125000 0.000000 0.000000 22.641500 -33.800700 6.669300 
1.026578 18.137412 3.889539 -174.209617 -14.484062 165.673124 -1.569761 2.966054 2.408655 -3.914426 0.749177 3.373312 6.130008 14.196360 45.635557 0.597834 1.566661 15.154419 2.107700 -9.086900 -26.067500 0.488966 -4.220160 1.718724 26.020839 3.079210 5.629244 -1.080506 -4.828055 17.755492 2.265656 -10.635479 2.769015 -0.000000 -0.008700 0.024000 1.375753 -1.443640 14.037764 1.213145 -2.288790 -3.568925 6.857536 -0.865344 -0.602248 -11.487988 -7.581833 -0.828009 -3.155259 -8.226112 4.546425 4.508600 -3.896700 1.686800 -2.349479 1.682015 -0.340220 -0.997473 -6.168707 -22.979022 25.158594 -38.269696 -10.872413 0.414789 -1.487081 83.093747 5.844013 12.675196 0.934700 -7.125000 0.000000 0.000000 -20.312400 41.575400 1.798900 3.546677 1.270597 1.815831 7.573936 -0.091407 -58.129483 -52.571751 54.853260 -25.400560 0.503629 -0.980026 140.392202 2.094909 -3.405790 -0.145400 7.125000 0.000000 0.000000 22.993000 -33.688900 6.856500 
1.038878 18.138437 3.847311 -174.268378 -14.457130 165.555704 -1.568647 2.961501 2.390534 -3.860528 0.910629 2.849522 6.294053 14.344856 46.288495 0.616563 1.503653 15.274151 2.078300 -9.027400 -25.881000 0.489110 -4.221808 1.726760 26.050260 3.020971 6.030425 -1.058454 -4.759726 17.569264 2.278989 -10.679326 2.644356 -0.000100 -0.056900 0.156200 1.300115 -1.420856 13.942708 1.197923 -2.269785 -3.563579 6.932133 -0.854562 -0.555726 -11.659438 -7.554571 -0.780117 -3.217969 -8.199057 4.689234 4.514600 -3.909900 1.751000 -2.309140 1.628148 -0.234570 1.022213 -7.384265 -24.503066 25.459687 -38.354124 -10.947465 0.453786 -1.498891 84.007270 6.354750 12.589193 1.031100 -7.125000 0.000000 0.000000 -19.843000 41.485700 1.799400 3.593556 1.296896 1.662218 5.161160 1.596555 -59.787088 -53.092064 55.261705 -25.922544 0.485847 -0.941306 140.684443 2.572162 -3.385220 -0.181500 7.125000 0.000000 0.000000 23.354800 -33.605800 7.032900 
